<!--?xml version="1.0" encoding="utf-8"?-->
<!-- Generator: Adobe Illustrator 19.1.1, SVG Export Plug-In . SVG Version: 6.00 Build 0)  -->
<svg version="1.1" id="_x31_0" xmlns="http://www.w3.org/2000/svg" xmlns:xlink="http://www.w3.org/1999/xlink" x="0px" y="0px" viewBox="0 0 512 512" style="width: 256px; height: 256px; opacity: 1;" xml:space="preserve">
<style type="text/css">
	.st0{fill:#374149;}
</style>
<g>
	<path class="st0" d="M511.886,19.995L491.891,0l-36.042,22.861c-7.571-3.405-14.439-2.003-22.537,5.857
		C412.981,48.486,324.044,136.252,321.424,138.93c-11.35,11.573-18.179,18.515-28.19,20.218c-1.523,0.254-2.913,0.414-4.264,0.542
		c-0.445,0.043-0.894,0.09-1.327,0.121c-10.492,0.762-15.658-2.054-18.027-3.37c-4.35-2.397-9.843-1.589-13.358,1.922l-9.437,9.441
		c-1.301,1.3-1.301,3.413,0,4.717l9.187,9.183l-24.677,24.677l-8.758-8.754c-3.112-3.111-8.153-3.111-11.265,0l-7.809,7.81
		c-3.112,3.112-3.112,8.207,0,11.319l19.074,19.074L65.898,392.509l-0.34,0.336l0,0l-0.114,0.113l7.946,7.946l-54.874,54.878
		l-1.086,1.925L2.723,484.042c-3.85,6.899-3.553,15.738,1.655,21.678c5.775,6.583,15.002,8.157,22.502,3.932l27.301-15.197
		l1.925-1.086l54.874-54.878l7.817,7.817l0.02,0.019l0,0l0.113,0.114l157.13-157.129l19.074,19.073
		c3.123,3.124,8.191,3.124,11.319,0l7.782-7.782c3.123-3.127,3.123-8.195,0-11.322l-8.73-8.727l24.68-24.676l9.156,9.156
		c1.316,1.319,3.456,1.319,4.772,0l9.41-9.41c3.514-3.51,4.322-9.003,1.898-13.326c-1.507-2.788-5.103-9.285-2.678-23.646
		c1.675-10.038,8.644-16.844,20.19-28.163c2.674-2.624,90.303-91.475,110.212-111.942c7.879-8.078,9.285-14.939,5.884-22.514
		L511.886,19.995z M302.046,247.038c2.343,2.342,2.37,6.162,0,8.531c-2.342,2.342-6.192,2.342-8.535,0
		c-1.171-1.171-1.757-2.702-1.784-4.236c0-1.562,0.586-3.151,1.757-4.322C295.854,244.641,299.676,244.668,302.046,247.038z
		 M254.587,288.269c1.179-2.783,0.676-6.032-1.589-8.301c-2.96-2.955-7.754-2.955-10.738,0.027
		c-2.956,2.956-2.983,7.782-0.027,10.738c2.132,2.132,5.142,2.636,7.794,1.742c0.218-0.043,0.422-0.047,0.648-0.086l-19.382,19.378
		l-18.14,17.93c1.152-2.757,0.671-6.029-1.593-8.29c-2.956-2.959-7.778-2.928-10.734,0.028c-2.983,2.982-2.983,7.778-0.031,10.733
		c2.135,2.132,5.126,2.663,7.797,1.742c0.219-0.039,0.418-0.042,0.645-0.086l-19.359,19.358l-18.163,17.953
		c1.152-2.757,0.644-6.001-1.617-8.266c-2.959-2.956-7.754-2.956-10.71,0c-2.983,2.983-2.983,7.782-0.028,10.738
		c2.132,2.131,5.127,2.658,7.794,1.741c0.218-0.038,0.422-0.046,0.648-0.09l-48.873,48.877l-7.95-7.95l-64.467,64.467l-27.3,15.255
		c-1.058,0.558-2.116,0.277-2.815-0.418c-0.699-0.699-1.003-1.785-0.418-2.819l15.25-27.297l64.472-64.471l-7.95-7.946
		l49.021-49.021c-1.335,2.846-0.836,6.247,1.48,8.558c2.983,2.987,7.778,2.987,10.765,0c2.955-2.952,2.955-7.75-0.031-10.734
		c-2.105-2.105-5.092-2.631-7.735-1.738c-0.218,0.039-0.422,0.047-0.648,0.086l19.335-19.339l18.183-17.973
		c-1.171,2.784-0.668,6.029,1.566,8.262c2.983,2.983,7.782,2.983,10.765,0c2.956-2.956,2.983-7.778,0-10.765
		c-2.105-2.105-5.115-2.608-7.766-1.71c-0.218,0.039-0.422,0.047-0.648,0.086l19.445-19.444l18.078-17.867
		c-1.152,2.761-0.671,6.029,1.566,8.266c2.983,2.983,7.806,2.956,10.765,0c2.983-2.982,2.983-7.782-0.004-10.765
		c-2.104-2.108-5.095-2.631-7.766-1.714c-0.219,0.039-0.418,0.046-0.645,0.086l10.254-10.249l31.174,31.174l-5.392,5.396
		L254.587,288.269z M260.58,220.132c-1.53,0.024-3.092-0.59-4.264-1.761c-2.342-2.342-2.342-6.189-0.003-8.531
		c2.37-2.37,6.192-2.342,8.535,0c2.37,2.37,2.37,6.162,0,8.535C263.676,219.542,262.142,220.129,260.58,220.132z"></path>
	<path class="st0" d="M169.539,331.582c-2.983,2.983-2.983,7.782,0,10.765c2.956,2.956,7.778,2.983,10.765,0
		c2.952-2.955,2.952-7.809-0.004-10.765C177.316,328.6,172.495,328.627,169.539,331.582z"></path>
	<path class="st0" d="M210.974,290.148c-2.956,2.956-2.983,7.778,0,10.761c2.955,2.96,7.809,2.96,10.764,0
		c2.983-2.983,2.956-7.805,0-10.761C218.755,287.165,213.956,287.165,210.974,290.148z"></path>
</g>
</svg>
